<svg width="18" height="22" viewBox="0 0 18 22" fill="none" xmlns="http://www.w3.org/2000/svg">
    <path d="M9.81466 13.2H5.45259C5.16336 13.2 4.88599 13.3159 4.68147 13.5222C4.47696 13.7285 4.36207 14.0083 4.36207 14.3C4.36207 14.5917 4.47696 14.8715 4.68147 15.0778C4.88599 15.2841 5.16336 15.4 5.45259 15.4H9.81466C10.1039 15.4 10.3813 15.2841 10.5858 15.0778C10.7903 14.8715 10.9052 14.5917 10.9052 14.3C10.9052 14.0083 10.7903 13.7285 10.5858 13.5222C10.3813 13.3159 10.1039 13.2 9.81466 13.2ZM14.1767 2.2H12.8899C12.6649 1.5581 12.2486 1.0021 11.698 0.608232C11.1475 0.214366 10.4896 0.00191346 9.81466 0H7.63362C6.95865 0.00191346 6.30079 0.214366 5.75023 0.608232C5.19966 1.0021 4.78335 1.5581 4.55836 2.2H3.27155C2.40388 2.2 1.57175 2.54768 0.958215 3.16655C0.34468 3.78542 0 4.62479 0 5.5V18.7C0 19.5752 0.34468 20.4146 0.958215 21.0335C1.57175 21.6523 2.40388 22 3.27155 22H14.1767C15.0444 22 15.8765 21.6523 16.4901 21.0335C17.1036 20.4146 17.4483 19.5752 17.4483 18.7V5.5C17.4483 4.62479 17.1036 3.78542 16.4901 3.16655C15.8765 2.54768 15.0444 2.2 14.1767 2.2ZM6.5431 3.3C6.5431 3.00826 6.658 2.72847 6.86251 2.52218C7.06702 2.31589 7.3444 2.2 7.63362 2.2H9.81466C10.1039 2.2 10.3813 2.31589 10.5858 2.52218C10.7903 2.72847 10.9052 3.00826 10.9052 3.3V4.4H6.5431V3.3ZM15.2672 18.7C15.2672 18.9917 15.1523 19.2715 14.9478 19.4778C14.7433 19.6841 14.4659 19.8 14.1767 19.8H3.27155C2.98233 19.8 2.70495 19.6841 2.50044 19.4778C2.29593 19.2715 2.18103 18.9917 2.18103 18.7V5.5C2.18103 5.20826 2.29593 4.92847 2.50044 4.72218C2.70495 4.51589 2.98233 4.4 3.27155 4.4H4.36207V5.5C4.36207 5.79174 4.47696 6.07153 4.68147 6.27782C4.88599 6.48411 5.16336 6.6 5.45259 6.6H11.9957C12.2849 6.6 12.5623 6.48411 12.7668 6.27782C12.9713 6.07153 13.0862 5.79174 13.0862 5.5V4.4H14.1767C14.4659 4.4 14.7433 4.51589 14.9478 4.72218C15.1523 4.92847 15.2672 5.20826 15.2672 5.5V18.7ZM11.9957 8.8H5.45259C5.16336 8.8 4.88599 8.91589 4.68147 9.12218C4.47696 9.32847 4.36207 9.60826 4.36207 9.9C4.36207 10.1917 4.47696 10.4715 4.68147 10.6778C4.88599 10.8841 5.16336 11 5.45259 11H11.9957C12.2849 11 12.5623 10.8841 12.7668 10.6778C12.9713 10.4715 13.0862 10.1917 13.0862 9.9C13.0862 9.60826 12.9713 9.32847 12.7668 9.12218C12.5623 8.91589 12.2849 8.8 11.9957 8.8Z" fill="#004A77"/>
</svg>
