<svg width="40" height="20" viewBox="0 0 40 20" fill="none" xmlns="http://www.w3.org/2000/svg">
    <path d="M10.1054 9.77099C8.74132 8.99693 7.37286 8.22262 5.99999 7.44807C5.27603 7.03952 4.84342 6.80706 4.70216 6.75067C4.19549 6.54838 3.68023 6.47221 3.15639 6.52217C3.00679 6.537 2.66713 6.61515 2.13741 6.75661C2.25463 6.67995 2.36867 6.61021 2.47952 6.54739C6.22684 4.42652 9.83511 2.38972 13.3043 0.437015C14.6198 -0.303412 16.2487 -0.0823225 17.3295 0.94374C18.2462 1.81326 18.5677 3.14276 18.1219 4.35134C17.8428 5.10808 17.3148 5.70606 16.5379 6.14527C14.4087 7.35014 12.2645 8.55871 10.1054 9.77099Z" fill="#FF2C25"/>
    <path d="M37.7952 12.9526C37.3976 13.0413 37.1454 13.0922 37.0389 13.1051C36.3294 13.1919 35.643 13.0496 34.9799 12.6783C33.2821 11.7289 31.6011 10.785 29.9369 9.84658C27.6969 8.58024 25.4714 7.32411 23.2605 6.0782C23.1282 6.00394 22.9706 5.88533 22.7876 5.72236C21.0431 4.16896 21.4117 1.35295 23.5166 0.354972C24.4999 -0.111497 25.4911 -0.118226 26.4903 0.334788C26.6906 0.42549 26.9097 0.53837 27.1475 0.673427C30.9057 2.80045 34.6262 4.90205 38.3089 6.97824C39.2458 7.50676 39.9134 8.46138 39.9904 9.54382C40.1021 11.1077 39.2318 12.3897 37.7952 12.9526Z" fill="#01A050"/>
    <path d="M10.0638 9.69918C12.269 10.9451 14.4688 12.1919 16.6631 13.4398C17.1666 13.7263 17.5578 14.1066 17.8367 14.5808C18.4308 15.5916 18.4779 16.629 17.9778 17.6931C17.7768 18.121 17.4871 18.4831 17.1087 18.7795C15.9611 19.6785 14.5082 19.7928 13.2297 19.0672C9.52578 16.9665 5.78961 14.8568 2.02116 12.7382C1.52602 12.4597 1.18633 12.2296 1.00207 12.0477C0.0790463 11.1354 -0.254985 9.81725 0.205417 8.57908C0.535507 7.69087 1.15381 7.05224 2.06033 6.66318C2.59241 6.52071 2.93359 6.442 3.08385 6.42706C3.61003 6.37674 4.12758 6.45346 4.63651 6.6572C4.7784 6.71399 5.21293 6.94812 5.94012 7.3596C7.31911 8.13971 8.69366 8.91957 10.0638 9.69918Z" fill="#2685FB"/>
    <path d="M29.977 9.771C31.647 10.7022 33.3339 11.6389 35.0375 12.581C35.7029 12.9494 36.3916 13.0906 37.1036 13.0045C37.2105 12.9917 37.4635 12.9412 37.8626 12.8532C37.7086 12.9645 37.5497 13.0659 37.3858 13.1573C33.9057 15.1009 30.5444 16.9769 27.302 18.7854C26.6777 19.1336 26.236 19.3435 25.9771 19.4152C23.5115 20.1007 21.0458 17.9012 21.8264 15.3494C21.9907 14.8123 22.2826 14.3457 22.702 13.9496C22.8886 13.773 23.2899 13.5122 23.9058 13.167C25.9189 12.0385 27.9426 10.9065 29.977 9.771Z" fill="#FFBA02"/>
</svg>
