<svg width="17" height="17" viewBox="0 0 17 17" fill="none" xmlns="http://www.w3.org/2000/svg">
    <path d="M12.4459 0.312752C12.2475 0.113295 11.9779 0.000800061 11.6966 4.25096e-06C11.4152 -0.000791559 11.145 0.110178 10.9455 0.308508C10.8402 0.415803 10.7588 0.544158 10.7067 0.685136C9.82386 2.5269 8.85187 3.56554 7.62522 4.17875C6.24894 4.85774 4.66893 5.32985 2.12224 5.32985C1.91276 5.33084 1.7082 5.39343 1.53404 5.50983C1.35988 5.62623 1.22383 5.79129 1.14283 5.98444C1.06264 6.17838 1.04171 6.39172 1.08269 6.59753C1.12368 6.80335 1.22473 6.99241 1.37309 7.14085L4.75297 10.5201C4.78816 10.5553 4.79212 10.611 4.76226 10.6508L0.419862 16.4402C0.350479 16.5327 0.467332 16.6496 0.559848 16.5802L6.35041 12.2386C6.39022 12.2088 6.44591 12.2127 6.4811 12.2479L9.85994 15.6261C9.95849 15.7254 10.0762 15.8038 10.2059 15.8563C10.3353 15.9104 10.4733 15.9391 10.6112 15.9391C10.7492 15.9391 10.8871 15.9104 11.0166 15.8563C11.2106 15.7767 11.3766 15.6412 11.4934 15.467C11.6101 15.2928 11.6724 15.0879 11.6723 14.8782C11.6723 12.3319 12.1435 10.7522 12.8215 9.39743C13.4338 8.171 14.4726 7.1992 16.3158 6.31651C16.4567 6.26489 16.5849 6.18347 16.6914 6.0778C16.8898 5.87829 17.0008 5.60817 17 5.32685C16.9992 5.04553 16.8867 4.77605 16.6872 4.57766L12.4459 0.312752Z" fill="#2685FB"/>
</svg>
