<svg width="23" height="23" viewBox="0 0 23 23" fill="none" xmlns="http://www.w3.org/2000/svg">
    <path d="M23 11.5C23 17.8513 17.8513 23 11.5 23C5.14873 23 0 17.8513 0 11.5C0 5.14873 5.14873 0 11.5 0C17.8513 0 23 5.14873 23 11.5ZM12.7778 6.38889C12.7778 5.6832 12.2057 5.11111 11.5 5.11111C10.7943 5.11111 10.2222 5.6832 10.2222 6.38889V10.2222H6.38889C5.6832 10.2222 5.11111 10.7943 5.11111 11.5C5.11111 12.2057 5.6832 12.7778 6.38889 12.7778H10.2222V16.6111C10.2222 17.3168 10.7943 17.8889 11.5 17.8889C12.2057 17.8889 12.7778 17.3168 12.7778 16.6111V12.7778H16.6111C17.3168 12.7778 17.8889 12.2057 17.8889 11.5C17.8889 10.7943 17.3168 10.2222 16.6111 10.2222H12.7778V6.38889Z" fill="#F5F5F5"/>
</svg>