<svg width="25" height="25" viewBox="0 0 25 25" fill="none" xmlns="http://www.w3.org/2000/svg">
    <path fill-rule="evenodd" clip-rule="evenodd" d="M11.7194 0C10.8556 0 10.1556 0.7 10.1556 1.5625L9.96805 2.875C9.92961 3.14349 9.82193 3.39734 9.65563 3.61159C9.48932 3.82584 9.2701 3.99311 9.01954 4.09695C8.76898 4.20079 8.49571 4.23762 8.2266 4.20382C7.95749 4.17002 7.70182 4.06675 7.48472 3.90417L6.42361 3.10833C6.27852 2.96324 6.10627 2.84815 5.9167 2.76962C5.72712 2.6911 5.52394 2.65068 5.31875 2.65068C5.11356 2.65068 4.91037 2.6911 4.7208 2.76962C4.53123 2.84815 4.35898 2.96324 4.21389 3.10833L3.10833 4.21389C2.49722 4.825 2.49722 5.8125 3.10833 6.42222L3.90417 7.48472C4.06672 7.70172 4.17002 7.95729 4.20389 8.2263C4.23777 8.49531 4.20106 8.76851 4.09737 9.01903C3.99369 9.26956 3.82659 9.4888 3.61252 9.65519C3.39844 9.82158 3.14476 9.9294 2.87639 9.96805L1.5625 10.1569C0.7 10.1569 0 10.8556 0 11.7181V13.2819C0 14.1431 0.7 14.8431 1.5625 14.8431L2.875 15.0319C3.14349 15.0704 3.39734 15.1781 3.61159 15.3444C3.82584 15.5107 3.99311 15.7299 4.09695 15.9805C4.20079 16.231 4.23762 16.5043 4.20382 16.7734C4.17002 17.0425 4.06675 17.2982 3.90417 17.5153L3.10833 18.5764C2.49722 19.1875 2.49722 20.1764 3.10833 20.7861L4.21389 21.8917C4.825 22.5028 5.8125 22.5028 6.42222 21.8917L7.48472 21.0958C7.70172 20.9333 7.95729 20.83 8.2263 20.7961C8.49531 20.7622 8.76851 20.7989 9.01903 20.9026C9.26956 21.0063 9.4888 21.1734 9.65519 21.3875C9.82158 21.6016 9.9294 21.8552 9.96805 22.1236L10.1569 23.4375C10.1569 24.3 10.8556 25 11.7181 25H13.2819C14.1431 25 14.8431 24.3 14.8431 23.4375L15.0319 22.125C15.0704 21.8565 15.1781 21.6027 15.3444 21.3884C15.5107 21.1742 15.7299 21.0069 15.9805 20.903C16.231 20.7992 16.5043 20.7624 16.7734 20.7962C17.0425 20.83 17.2982 20.9333 17.5153 21.0958L18.5764 21.8917C19.1875 22.5028 20.1764 22.5028 20.7861 21.8917L21.8917 20.7861C22.5014 20.175 22.5014 19.1875 21.8917 18.5778L21.0958 17.5153C20.9333 17.2983 20.83 17.0427 20.7961 16.7737C20.7622 16.5047 20.7989 16.2315 20.9026 15.981C21.0063 15.7304 21.1734 15.5112 21.3875 15.3448C21.6016 15.1784 21.8552 15.0706 22.1236 15.0319L23.4375 14.8431C24.3 14.8431 25 14.1444 25 13.2819V11.7181C25 10.8569 24.3 10.1569 23.4375 10.1569L22.125 9.96805C21.8565 9.92961 21.6027 9.82193 21.3884 9.65563C21.1742 9.48932 21.0069 9.2701 20.903 9.01954C20.7992 8.76898 20.7624 8.49571 20.7962 8.2266C20.83 7.95749 20.9333 7.70182 21.0958 7.48472L21.8917 6.42361C22.5014 5.8125 22.5014 4.82361 21.8917 4.21389L20.7861 3.10833C20.4931 2.81573 20.096 2.65137 19.6819 2.65137C19.2679 2.65137 18.8707 2.81573 18.5778 3.10833L17.5153 3.90417C17.2983 4.06672 17.0427 4.17002 16.7737 4.20389C16.5047 4.23777 16.2315 4.20106 15.981 4.09737C15.7304 3.99369 15.5112 3.82659 15.3448 3.61252C15.1784 3.39844 15.0706 3.14476 15.0319 2.87639L14.8431 1.5625C14.8431 0.7 14.1444 0 13.2819 0H11.7194ZM12.5 15.625C13.3288 15.625 14.1237 15.2958 14.7097 14.7097C15.2958 14.1237 15.625 13.3288 15.625 12.5C15.625 11.6712 15.2958 10.8763 14.7097 10.2903C14.1237 9.70424 13.3288 9.375 12.5 9.375C11.6712 9.375 10.8763 9.70424 10.2903 10.2903C9.70424 10.8763 9.375 11.6712 9.375 12.5C9.375 13.3288 9.70424 14.1237 10.2903 14.7097C10.8763 15.2958 11.6712 15.625 12.5 15.625Z" fill="#F5F5F5"/>
</svg>
