<svg width="13" height="13" viewBox="0 0 13 13" fill="none" xmlns="http://www.w3.org/2000/svg">
    <path d="M8.35714 4.17857C8.35714 6.48633 6.48633 8.35714 4.17857 8.35714C1.87081 8.35714 0 6.48633 0 4.17857C0 1.87081 1.87081 0 4.17857 0C6.48633 0 8.35714 1.87081 8.35714 4.17857ZM4.64286 2.32143C4.64286 2.06501 4.43499 1.85714 4.17857 1.85714C3.92216 1.85714 3.71429 2.06501 3.71429 2.32143V3.71429H2.32143C2.06501 3.71429 1.85714 3.92216 1.85714 4.17857C1.85714 4.43499 2.06501 4.64286 2.32143 4.64286H3.71429V6.03571C3.71429 6.29213 3.92216 6.5 4.17857 6.5C4.43499 6.5 4.64286 6.29213 4.64286 6.03571V4.64286H6.03571C6.29213 4.64286 6.5 4.43499 6.5 4.17857C6.5 3.92216 6.29213 3.71429 6.03571 3.71429H4.64286V2.32143Z" fill="#F5F5F5"/>
    <path d="M4.17858 9.28575C6.99918 9.28575 9.28572 6.99921 9.28572 4.17861C9.28572 3.34269 9.08487 2.55367 8.72885 1.85718H10.6786C11.9607 1.85718 13 2.89652 13 4.17861V7.42861H10.2143C8.67574 7.42861 7.42858 8.67577 7.42858 10.2143V13H4.17858C2.89649 13 1.85715 11.9607 1.85715 10.6786V8.72889C2.55364 9.0849 3.34266 9.28575 4.17858 9.28575Z" fill="#F5F5F5"/>
    <path d="M8.35715 12.9857C8.65299 12.9431 8.92924 12.806 9.14309 12.5921L12.5921 9.14312C12.8059 8.92927 12.9431 8.65302 12.9857 8.35718H10.2143C9.18859 8.35718 8.35715 9.18862 8.35715 10.2143V12.9857Z" fill="#F5F5F5"/>
</svg>
